<svg id="eLXSIG8Q9Ys1" xmlns="http://www.w3.org/2000/svg" xmlns:xlink="http://www.w3.org/1999/xlink" viewBox="0 0 300 300" shape-rendering="geometricPrecision" text-rendering="geometricPrecision"><path d="M81.426382,171.989963c.569117-.199558,1.138236-.399092,2.244718-.0378.537365,12.543239.537365,24.525602.537365,36.507989c1.408494.05001,2.817001.100042,4.225497.150077.461212-12.455255.922427-24.910511,1.383641-37.365766c12.909322.051534,25.818632.10307,39.81092.180647c1.330292-.072048,1.577629-.170114,1.824978-.26818c1.015326,2.115743,2.900565,4.225109,2.914748,6.348183.195706,29.303758.193808,58.609842-.003474,87.913523-.012666,1.880687-2.023562,3.746588-4.259244,5.02177-4.200976-.78818-7.246586-.999196-10.294402-1.165483-10.169785-.554848-20.340346-1.093709-30.510619-1.6387-.259598-10.976713-.519196-21.953425-.778804-32.930138-1.29326.003602-2.586521.007229-3.879781.010832c0,9.932713,0,19.86545-.494317,30.749976-.265137,1.907606-.035944,2.863372.193261,3.819162-1.131075.590846-2.262149,1.181719-4.417802,1.174413-13.199599-.317312-25.374603-.036425-37.549601.244464-5.941907.194781-3.009432-4.733575-3.027309-6.887421-.248208-29.90436-.150266-59.811847.244217-90.591418.638906-.824504.896689-.776221,1.317768-.451253.555229.007679.947161-.261326,1.399314-.801489.060208-.271157.095896-.826654.095896-.826654c11.958323.126935,23.916644.25387,36.407228.899028.606113.937904.679961,1.357586.753819,1.777267.620665-.611009,1.241331-1.222019,1.861985-1.83303Z" transform="translate(-38.655857-3.961638)" fill="#1d2345"/><path d="M185.369551,267.812609c-20.779463.091967-41.558904.183908-63.078213-.132537-1.100535-.247836-1.461233-.087263-1.821922.073307-2.426911.139745-4.853843.279513-7.654124.440736c0-32.57663,0-64.544094,0-98.032327c13.8462,12.560001,26.991575,24.484295,41.138443,37.317034c0-12.505641,0-23.400333,0-34.856867c13.681812,0,26.826919,0,40.512281,0c.138076,1.332523.419492,2.789626.420832,4.247117.024909,27.353737.009514,54.707525.021091,82.061286.002352,5.535334-.303165,10.669876-7.726021,8.748315-1.080053-.223271-1.4462-.044668-1.812367.133935m-.80386-5.646848c-20.615467-.178677-41.230892-.373311-61.846638-.472315-.754364-.00364-1.51202.929708-1.472295,2.363115c20.619925.180628,41.239807.377336,61.86002.47769.752064.003664,1.507469-.93824,1.458913-2.36849Z" transform="translate(-3.707234-1.446434)" fill="#1d2345"/><path d="M185.509719,261.443175c16.36076-31.120693,32.721497-62.241386,49.599055-94.345107c15.967011,30.097401,31.455739,59.293256,46.990668,89.706555c1.19578,2.82155,2.345379,4.425679,3.494935,6.029809c0,0,.007689.122533-.25746.519547-.776048.827669-1.286904,1.258346-2.476319,1.682081-29.320624-.006919-57.963348.081066-86.604018-.147216-2.768403-.022058-5.524146-2.004359-8.902724-3.155311-1.025996-.149203-1.435077-.219768-1.844137-.290358Z" transform="translate(14.405624 1.701448)" fill="#1d2345"/><path d="M227.133486,148.888475c-.19242.970279-.384867,1.94057-1.564554,3.298028-17.804262.387181-34.621234.387181-51.438207.387181-.001105.589245-.002235,1.178505-.003341,1.767752c17.295816,0,34.591606,0,51.887396,0-.793567.635363-1.588436,1.827019-2.380503,1.824686-19.675458-.057758-39.350595-.241677-59.251272-1.723228-.396563-2.8784-.567659-4.436771-.704431-6.807427.00769-19.209708-.018943-37.607146.127854-56.645629.053068-1.066768-.067268-1.492504-.187582-1.918238c2.110224-1.005058,4.212511-2.857387,6.331948-2.882189c18.28136-.213898,36.565816-.098397,55.659464.560394c1.077358,1.361989,1.344591,2.082449,1.36975,3.606384-.110215,20.046398.021645,39.289348.153479,58.532286m-61.149395-15.48961c0,4.471332,0,8.942665,0,13.414012.368161-.018037.736297-.036058,1.104458-.054079c0-17.766535,0-35.53307,0-53.299605-.368161-.000453-.736297-.000907-1.104458-.001373c0,12.732775,0,25.465552,0,39.941044Z" transform="translate(-8.470196-22.758087)" fill="#3409fa"/><path d="M174.29775,72.999695c.571342,3.024675,1.621749,6.046607,1.638366,9.074469.134513,24.502844.074925,49.006799-.730402,74.331832-28.284535.82504-55.764124.828655-83.243699.83227c0,0,.010246-.011593.012549-.828816-.003821-28.331836-.009971-55.846451-.016122-83.36105c0,0,.005365-.031087.819066-.04035c27.715876-.008944,54.618052-.008649,81.520241-.008354Z" transform="translate(-38.117202-23.830231)" fill="#c008be"/></svg>
