<svg id="em1BytlL6sT1" xmlns="http://www.w3.org/2000/svg" xmlns:xlink="http://www.w3.org/1999/xlink" viewBox="0 0 300 300" shape-rendering="geometricPrecision" text-rendering="geometricPrecision"><path d="M227.133486,151.195736c-.342449,1.337472-.684947,2.674958-2.784431,4.546133-31.686176.533706-61.615274.533706-91.544375.533706-.001966.812239-.003977,1.624498-.005946,2.43674c30.781296,0,61.562545,0,92.343795,0-1.412307.87581-2.826933,2.518436-4.236572,2.515219-35.016334-.079615-70.032099-.333137-105.449256-2.375366-.705762-3.967701-1.01026-6.115822-1.253674-9.383628.013686-26.479426-.033713-51.839187.227541-78.082589.094445-1.470475-.119717-2.057327-.333838-2.644176c3.755557-1.385412,7.496989-3.938736,11.268942-3.972924c32.535264-.294845,65.076038-.135635,99.05693.77247c1.91737,1.87742,2.392964,2.870531,2.437738,4.971183-.196149,27.632752.038521,54.158.273146,80.683231M118.306147,129.844241c0,6.163462,0,12.326925,0,18.490407.655214-.024863,1.310386-.049703,1.9656-.074544c0-24.490099,0-48.980197,0-73.470296-.655214-.000625-1.310386-.00125-1.9656-.001892c0,17.551364,0,35.10273,0,55.056325Z" transform="translate(72.866515 67.624333)" fill="#3409fa"/><path d="M182.007499,35.325117c.963315,4.792816,2.734363,9.581286,2.762381,14.379151.226797,38.826525.126327,77.654811-1.231501,117.784153-47.689378,1.307336-94.02157,1.313063-140.353738,1.318791c0,0,.017275-.018371.021159-1.313319-.006443-44.893839-.016812-88.492733-.027182-132.091602c0,0,.009045-.049259,1.380994-.063937c46.730585-.014172,92.089225-.013705,137.447888-.013238Z" transform="translate(-43.178618 64.383002)" fill="#c008be"/></svg>
